<svg width="238" height="80" viewBox="0 0 238 80" fill="none" xmlns="http://www.w3.org/2000/svg">
<path d="M9.34152 14.021C12.0488 14.021 14.0242 14.6046 15.2679 15.7717C16.5115 16.9292 17.1333 18.5268 17.1333 20.5644C17.1333 21.4828 16.9946 22.3629 16.7172 23.2047C16.4397 24.037 15.9853 24.7784 15.354 25.4289C14.7321 26.0794 13.8999 26.596 12.8571 26.9786C11.8144 27.3517 10.5277 27.5383 8.99713 27.5383H7.08865V35H2.64031V14.021H9.34152ZM9.11193 17.6658H7.08865V23.8935H8.5523C9.38457 23.8935 10.1068 23.7835 10.7191 23.5635C11.3313 23.3434 11.8048 22.999 12.1397 22.5303C12.4745 22.0615 12.6419 21.4589 12.6419 20.7223C12.6419 19.6891 12.3549 18.9238 11.7809 18.4263C11.207 17.9193 10.3173 17.6658 9.11193 17.6658ZM38.1696 14.021V27.5957C38.1696 29.0402 37.8492 30.346 37.2082 31.5131C36.5768 32.6706 35.6154 33.589 34.324 34.2682C33.0421 34.9474 31.4254 35.287 29.4739 35.287C26.6996 35.287 24.5855 34.5791 23.1314 33.1633C21.6773 31.7474 20.9503 29.8724 20.9503 27.5383V14.021H25.3842V26.8638C25.3842 28.5953 25.7382 29.8103 26.4461 30.5086C27.154 31.207 28.2015 31.5561 29.5886 31.5561C30.5644 31.5561 31.3536 31.3887 31.9563 31.0539C32.5686 30.7191 33.0182 30.2025 33.3052 29.5041C33.5922 28.8058 33.7356 27.9161 33.7356 26.8351V14.021H38.1696ZM49.4196 14.021C51.3233 14.021 52.8922 14.2506 54.1263 14.7098C55.3699 15.169 56.293 15.8626 56.8957 16.7905C57.4984 17.7184 57.7997 18.8903 57.7997 20.3061C57.7997 21.2628 57.618 22.0998 57.2545 22.8173C56.8909 23.5348 56.4126 24.1422 55.8195 24.6397C55.2264 25.1371 54.5855 25.5437 53.8967 25.8594L60.067 35H55.1307L50.1228 26.9499H47.7551V35H43.3068V14.021H49.4196ZM49.104 17.6658H47.7551V23.3339H49.19C50.6633 23.3339 51.7156 23.0899 52.3469 22.602C52.9879 22.1046 53.3084 21.3776 53.3084 20.4209C53.3084 19.426 52.964 18.7181 52.2752 18.2972C51.596 17.8763 50.5389 17.6658 49.104 17.6658ZM69.4085 14.021C72.1158 14.021 74.0912 14.6046 75.3348 15.7717C76.5784 16.9292 77.2003 18.5268 77.2003 20.5644C77.2003 21.4828 77.0615 22.3629 76.7841 23.2047C76.5067 24.037 76.0523 24.7784 75.4209 25.4289C74.7991 26.0794 73.9668 26.596 72.9241 26.9786C71.8814 27.3517 70.5947 27.5383 69.0641 27.5383H67.1556V35H62.7073V14.021H69.4085ZM69.1789 17.6658H67.1556V23.8935H68.6193C69.4515 23.8935 70.1738 23.7835 70.786 23.5635C71.3983 23.3434 71.8718 22.999 72.2066 22.5303C72.5415 22.0615 72.7089 21.4589 72.7089 20.7223C72.7089 19.6891 72.4219 18.9238 71.8479 18.4263C71.2739 17.9193 70.3842 17.6658 69.1789 17.6658ZM81.1607 35V14.021H85.609V31.3265H94.1183V35H81.1607ZM109.86 35H97.7774V14.021H109.86V17.6658H102.226V22.272H109.329V25.9168H102.226V31.3265H109.86V35ZM128.586 14.021C131.293 14.021 133.268 14.6046 134.512 15.7717C135.756 16.9292 136.378 18.5268 136.378 20.5644C136.378 21.4828 136.239 22.3629 135.961 23.2047C135.684 24.037 135.23 24.7784 134.598 25.4289C133.976 26.0794 133.144 26.596 132.101 26.9786C131.059 27.3517 129.772 27.5383 128.241 27.5383H126.333V35H121.885V14.021H128.586ZM128.356 17.6658H126.333V23.8935H127.797C128.629 23.8935 129.351 23.7835 129.963 23.5635C130.576 23.3434 131.049 22.999 131.384 22.5303C131.719 22.0615 131.886 21.4589 131.886 20.7223C131.886 19.6891 131.599 18.9238 131.025 18.4263C130.451 17.9193 129.562 17.6658 128.356 17.6658ZM153.181 35L151.66 30.0064H144.011L142.49 35H137.698L145.102 13.9349H150.54L157.974 35H153.181ZM150.598 26.2755L149.077 21.3967C148.981 21.0714 148.852 20.6553 148.689 20.1483C148.536 19.6317 148.378 19.1103 148.216 18.5842C148.063 18.0485 147.938 17.5845 147.843 17.1923C147.747 17.5845 147.613 18.0724 147.441 18.6559C147.278 19.2299 147.121 19.7752 146.967 20.2918C146.814 20.8084 146.704 21.1767 146.637 21.3967L145.131 26.2755H150.598ZM166.741 14.021C168.645 14.021 170.214 14.2506 171.448 14.7098C172.691 15.169 173.614 15.8626 174.217 16.7905C174.82 17.7184 175.121 18.8903 175.121 20.3061C175.121 21.2628 174.939 22.0998 174.576 22.8173C174.212 23.5348 173.734 24.1422 173.141 24.6397C172.548 25.1371 171.907 25.5437 171.218 25.8594L177.388 35H172.452L167.444 26.9499H165.077V35H160.628V14.021H166.741ZM166.425 17.6658H165.077V23.3339H166.511C167.985 23.3339 169.037 23.0899 169.668 22.602C170.309 22.1046 170.63 21.3776 170.63 20.4209C170.63 19.426 170.285 18.7181 169.597 18.2972C168.917 17.8763 167.86 17.6658 166.425 17.6658ZM186.142 14.021C188.045 14.021 189.614 14.2506 190.848 14.7098C192.092 15.169 193.015 15.8626 193.618 16.7905C194.22 17.7184 194.522 18.8903 194.522 20.3061C194.522 21.2628 194.34 22.0998 193.976 22.8173C193.613 23.5348 193.135 24.1422 192.541 24.6397C191.948 25.1371 191.307 25.5437 190.619 25.8594L196.789 35H191.853L186.845 26.9499H184.477V35H180.029V14.021H186.142ZM185.826 17.6658H184.477V23.3339H185.912C187.385 23.3339 188.437 23.0899 189.069 22.602C189.71 22.1046 190.03 21.3776 190.03 20.4209C190.03 19.426 189.686 18.7181 188.997 18.2972C188.318 17.8763 187.261 17.6658 185.826 17.6658ZM218.471 24.4818C218.471 26.0985 218.27 27.5717 217.868 28.9015C217.467 30.2216 216.854 31.36 216.032 32.3166C215.218 33.2733 214.185 34.0099 212.932 34.5265C211.679 35.0335 210.196 35.287 208.484 35.287C206.771 35.287 205.289 35.0335 204.035 34.5265C202.782 34.0099 201.744 33.2733 200.922 32.3166C200.108 31.36 199.501 30.2168 199.099 28.8871C198.697 27.5574 198.496 26.0794 198.496 24.4531C198.496 22.2816 198.85 20.3922 199.558 18.7851C200.276 17.1684 201.376 15.9152 202.859 15.0255C204.342 14.1358 206.226 13.691 208.512 13.691C210.789 13.691 212.659 14.1358 214.123 15.0255C215.596 15.9152 216.687 17.1684 217.395 18.7851C218.112 20.4018 218.471 22.3007 218.471 24.4818ZM203.16 24.4818C203.16 25.9455 203.342 27.2082 203.705 28.2701C204.078 29.3224 204.657 30.1355 205.442 30.7095C206.226 31.2739 207.24 31.5561 208.484 31.5561C209.746 31.5561 210.77 31.2739 211.555 30.7095C212.339 30.1355 212.908 29.3224 213.262 28.2701C213.626 27.2082 213.807 25.9455 213.807 24.4818C213.807 22.2816 213.396 20.5501 212.573 19.2873C211.751 18.0246 210.397 17.3932 208.512 17.3932C207.259 17.3932 206.236 17.6802 205.442 18.2541C204.657 18.8186 204.078 19.6317 203.705 20.6936C203.342 21.7459 203.16 23.0086 203.16 24.4818ZM230.912 35H226.464V17.7232H220.767V14.021H236.609V17.7232H230.912V35Z" fill="#F0F0F0"/>
<path d="M76.912 46.3272L71.574 67.3062H66.5086L63.6674 56.2857C63.61 56.0753 63.5335 55.7548 63.4378 55.3243C63.3422 54.8938 63.2417 54.4251 63.1365 53.9181C63.0312 53.4015 62.9356 52.9184 62.8495 52.4688C62.773 52.0096 62.7203 51.6461 62.6916 51.3782C62.6629 51.6461 62.6055 52.0048 62.5195 52.4544C62.4429 52.904 62.352 53.3824 62.2468 53.8894C62.1511 54.3964 62.0555 54.8699 61.9598 55.31C61.8642 55.75 61.7876 56.0849 61.7302 56.3144L58.9034 67.3062H53.8524L48.5 46.3272H52.8766L55.5599 57.7781C55.6365 58.1225 55.7226 58.5338 55.8182 59.0121C55.9235 59.4905 56.0239 59.9927 56.1196 60.5188C56.2248 61.0354 56.3157 61.5377 56.3922 62.0255C56.4783 62.5039 56.5405 62.92 56.5788 63.2739C56.6266 62.9104 56.6888 62.4895 56.7653 62.0112C56.8418 61.5233 56.9232 61.0306 57.0092 60.5332C57.1049 60.0262 57.2006 59.5574 57.2962 59.1269C57.3919 58.6965 57.478 58.3473 57.5545 58.0794L60.611 46.3272H64.8154L67.8718 58.0794C67.9388 58.3377 68.0153 58.6869 68.1014 59.1269C68.1971 59.5574 68.2927 60.0262 68.3884 60.5332C68.4841 61.0402 68.5702 61.5377 68.6467 62.0255C68.7328 62.5039 68.795 62.92 68.8332 63.2739C68.9002 62.7956 68.9911 62.2169 69.1059 61.5377C69.2302 60.8489 69.3594 60.1649 69.4933 59.4857C69.6368 58.8065 69.7612 58.2373 69.8664 57.7781L72.5354 46.3272H76.912ZM91.6346 67.3062H79.5523V46.3272H91.6346V49.972H84.0006V54.5782H91.1036V58.2229H84.0006V63.6327H91.6346V67.3062ZM96.0255 46.3272H102.555C105.348 46.3272 107.462 46.7194 108.897 47.5039C110.332 48.2883 111.049 49.6658 111.049 51.6365C111.049 52.4305 110.92 53.148 110.662 53.7889C110.413 54.4299 110.05 54.956 109.571 55.3674C109.093 55.7787 108.51 56.0466 107.821 56.1709V56.3144C108.519 56.4579 109.151 56.7067 109.715 57.0606C110.279 57.405 110.729 57.912 111.064 58.5817C111.408 59.2417 111.58 60.1218 111.58 61.222C111.58 62.4943 111.269 63.5849 110.648 64.4937C110.026 65.4025 109.136 66.1008 107.979 66.5887C106.831 67.067 105.463 67.3062 103.875 67.3062H96.0255V46.3272ZM100.474 54.6356H103.057C104.348 54.6356 105.243 54.4347 105.74 54.0329C106.238 53.6215 106.486 53.0188 106.486 52.2248C106.486 51.4213 106.19 50.8473 105.597 50.5029C105.013 50.1489 104.085 49.972 102.813 49.972H100.474V54.6356ZM100.474 58.1655V63.6327H103.372C104.712 63.6327 105.644 63.3744 106.171 62.8578C106.697 62.3412 106.96 61.6477 106.96 60.7771C106.96 60.2606 106.845 59.8062 106.615 59.4139C106.386 59.0217 105.998 58.7156 105.453 58.4956C104.917 58.2755 104.176 58.1655 103.229 58.1655H100.474ZM128.154 61.4803C128.154 62.7239 127.853 63.8049 127.25 64.7232C126.647 65.6416 125.767 66.3495 124.61 66.847C123.462 67.3444 122.065 67.5931 120.42 67.5931C119.693 67.5931 118.98 67.5453 118.282 67.4496C117.593 67.354 116.928 67.2153 116.287 67.0335C115.656 66.8422 115.053 66.6078 114.479 66.3304V62.1977C115.474 62.6378 116.507 63.0348 117.578 63.3887C118.65 63.7427 119.712 63.9197 120.764 63.9197C121.491 63.9197 122.075 63.824 122.515 63.6327C122.964 63.4414 123.29 63.1783 123.49 62.8435C123.691 62.5086 123.792 62.126 123.792 61.6955C123.792 61.1694 123.615 60.7197 123.261 60.3466C122.907 59.9736 122.419 59.6244 121.797 59.2991C121.185 58.9739 120.491 58.6247 119.717 58.2516C119.229 58.022 118.698 57.7446 118.124 57.4194C117.55 57.0845 117.004 56.678 116.488 56.1996C115.971 55.7213 115.546 55.1426 115.211 54.4634C114.886 53.7746 114.723 52.9519 114.723 51.9952C114.723 50.7421 115.01 49.6706 115.584 48.781C116.158 47.8913 116.976 47.2121 118.038 46.7433C119.109 46.265 120.372 46.0259 121.826 46.0259C122.916 46.0259 123.954 46.155 124.94 46.4133C125.935 46.662 126.973 47.0255 128.054 47.5039L126.619 50.9621C125.652 50.5699 124.787 50.2685 124.021 50.0581C123.256 49.838 122.476 49.728 121.682 49.728C121.128 49.728 120.654 49.8189 120.262 50.0007C119.87 50.1729 119.573 50.4216 119.372 50.7468C119.171 51.0625 119.071 51.4308 119.071 51.8518C119.071 52.3492 119.214 52.7701 119.501 53.1145C119.798 53.4493 120.238 53.7746 120.821 54.0903C121.415 54.406 122.151 54.7743 123.031 55.1952C124.103 55.7022 125.016 56.2331 125.772 56.788C126.537 57.3333 127.126 57.979 127.537 58.7252C127.948 59.4618 128.154 60.3801 128.154 61.4803ZM131.957 67.3062V46.3272H136.405V67.3062H131.957ZM149.779 67.3062H145.33V50.0294H139.634V46.3272H155.475V50.0294H149.779V67.3062ZM170.786 67.3062H158.704V46.3272H170.786V49.972H163.152V54.5782H170.255V58.2229H163.152V63.6327H170.786V67.3062ZM187.561 61.4803C187.561 62.7239 187.26 63.8049 186.657 64.7232C186.054 65.6416 185.174 66.3495 184.017 66.847C182.869 67.3444 181.472 67.5931 179.827 67.5931C179.099 67.5931 178.387 67.5453 177.688 67.4496C177 67.354 176.335 67.2153 175.694 67.0335C175.062 66.8422 174.46 66.6078 173.886 66.3304V62.1977C174.881 62.6378 175.914 63.0348 176.985 63.3887C178.057 63.7427 179.119 63.9197 180.171 63.9197C180.898 63.9197 181.482 63.824 181.922 63.6327C182.371 63.4414 182.696 63.1783 182.897 62.8435C183.098 62.5086 183.199 62.126 183.199 61.6955C183.199 61.1694 183.022 60.7197 182.668 60.3466C182.314 59.9736 181.826 59.6244 181.204 59.2991C180.592 58.9739 179.898 58.6247 179.123 58.2516C178.636 58.022 178.105 57.7446 177.531 57.4194C176.957 57.0845 176.411 56.678 175.895 56.1996C175.378 55.7213 174.952 55.1426 174.618 54.4634C174.292 53.7746 174.13 52.9519 174.13 51.9952C174.13 50.7421 174.417 49.6706 174.991 48.781C175.565 47.8913 176.383 47.2121 177.445 46.7433C178.516 46.265 179.779 46.0259 181.233 46.0259C182.323 46.0259 183.361 46.155 184.347 46.4133C185.342 46.662 186.379 47.0255 187.46 47.5039L186.026 50.9621C185.059 50.5699 184.194 50.2685 183.428 50.0581C182.663 49.838 181.883 49.728 181.089 49.728C180.534 49.728 180.061 49.8189 179.669 50.0007C179.276 50.1729 178.98 50.4216 178.779 50.7468C178.578 51.0625 178.478 51.4308 178.478 51.8518C178.478 52.3492 178.621 52.7701 178.908 53.1145C179.205 53.4493 179.645 53.7746 180.228 54.0903C180.821 54.406 181.558 54.7743 182.438 55.1952C183.51 55.7022 184.423 56.2331 185.179 56.788C185.944 57.3333 186.533 57.979 186.944 58.7252C187.355 59.4618 187.561 60.3801 187.561 61.4803Z" fill="#F0F0F0"/>
</svg>
