<?xml version="1.0" standalone="no"?>
<!DOCTYPE svg PUBLIC "-//W3C//DTD SVG 20010904//EN"
 "http://www.w3.org/TR/2001/REC-SVG-20010904/DTD/svg10.dtd">
<svg version="1.0" xmlns="http://www.w3.org/2000/svg"
 width="602.000000pt" height="602.000000pt" viewBox="0 0 602.000000 602.000000"
 preserveAspectRatio="xMidYMid meet">
<metadata>
Created by potrace 1.14, written by Peter Selinger 2001-2017
</metadata>
<g transform="translate(0.000000,602.000000) scale(0.100000,-0.100000)"
fill="#000000" stroke="none">
<path d="M4207 5983 c-2 -2 -21 -5 -43 -7 -55 -6 -116 -16 -133 -22 -8 -2 -30
-7 -50 -10 -101 -16 -342 -109 -521 -202 -41 -21 -93 -45 -115 -54 -22 -9 -69
-29 -105 -46 -85 -38 -103 -45 -112 -44 -5 1 -8 -3 -8 -8 0 -6 -11 -10 -24
-10 -14 0 -27 -4 -30 -9 -3 -5 -45 -25 -93 -46 -49 -21 -116 -51 -150 -67 -34
-16 -66 -30 -70 -30 -4 -1 -39 -16 -78 -35 -38 -18 -75 -33 -82 -33 -7 0 -13
-5 -13 -12 0 -6 -3 -8 -6 -5 -4 4 -19 0 -33 -8 -59 -33 -261 -123 -261 -117 0
4 -4 2 -8 -3 -8 -12 -146 -76 -227 -107 -63 -23 -193 -54 -265 -63 -30 -3 -63
-8 -72 -11 -9 -3 -65 -7 -123 -9 -59 -2 -109 -6 -112 -9 -4 -3 -12 -1 -19 5
-8 6 -14 7 -18 0 -4 -6 -12 -8 -19 -6 -30 11 -217 12 -239 1 -59 -29 -57 -98
4 -158 40 -40 143 -118 181 -137 15 -8 27 -18 27 -22 0 -13 -235 -52 -340 -55
-58 -2 -107 -4 -110 -5 -3 -1 -8 -1 -11 -1 -4 1 -44 4 -90 7 -87 5 -120 9
-179 20 -19 3 -46 8 -60 10 -14 3 -38 9 -55 13 -66 19 -118 -20 -118 -88 0
-24 10 -40 44 -70 24 -22 48 -40 52 -40 4 0 17 -8 28 -18 10 -11 32 -25 47
-33 15 -8 55 -31 89 -52 35 -20 65 -37 67 -37 2 0 37 -15 78 -34 149 -68 331
-125 453 -140 28 -4 70 -9 95 -13 61 -8 264 -7 325 2 28 4 66 9 85 11 29 3 48
6 103 20 4 1 8 2 10 3 1 1 16 4 34 6 l31 5 -37 -88 c-50 -115 -64 -145 -74
-157 -4 -5 -25 -37 -47 -70 -22 -33 -51 -75 -64 -93 -13 -18 -23 -40 -21 -50
2 -9 4 -22 4 -28 1 -6 9 -21 20 -32 25 -30 79 -29 183 5 71 23 253 106 268
123 3 3 21 17 40 30 19 12 57 44 83 69 39 38 49 43 57 31 5 -8 10 -22 10 -31
0 -9 3 -19 7 -22 3 -4 21 -51 39 -105 l32 -97 -74 -72 c-41 -40 -78 -73 -82
-73 -4 0 -18 -10 -32 -23 -31 -29 -184 -122 -270 -164 -111 -55 -200 -92 -200
-85 0 4 -4 3 -8 -3 -15 -20 -232 -91 -452 -147 -173 -44 -204 -62 -202 -118 0
-18 9 -41 19 -52 43 -48 235 -116 376 -134 22 -2 43 -6 44 -8 4 -4 -173 -56
-209 -61 -15 -2 -44 -8 -65 -14 -21 -5 -63 -12 -93 -16 -30 -4 -66 -8 -80 -10
-14 -2 -50 -7 -80 -10 -30 -4 -58 -9 -62 -11 -4 -3 -8 -1 -8 5 0 7 -8 7 -24 1
-13 -5 -26 -6 -29 -3 -3 3 -19 -4 -36 -16 -37 -27 -47 -68 -27 -115 18 -43
112 -187 150 -231 57 -65 161 -166 202 -197 24 -18 44 -36 44 -40 0 -3 -44 -7
-97 -7 -54 -1 -113 -6 -133 -13 -113 -37 -179 -133 -178 -258 2 -110 92 -215
205 -236 33 -6 148 -9 168 -4 6 1 15 1 20 0 27 -5 246 -1 256 6 7 4 10 3 6 -2
-3 -5 31 -8 79 -7 46 1 84 -2 84 -7 0 -13 -129 -162 -230 -265 -96 -99 -171
-169 -245 -230 -100 -82 -116 -99 -120 -134 -3 -27 2 -39 25 -63 28 -28 33
-29 112 -27 190 4 398 48 544 114 l73 33 -10 -26 c-13 -33 -52 -115 -59 -122
-3 -3 -13 -22 -24 -42 -33 -65 -172 -241 -263 -333 -105 -106 -151 -148 -259
-234 -102 -83 -114 -97 -114 -136 0 -45 45 -84 92 -80 171 16 474 112 685 218
273 137 497 319 653 530 33 45 66 88 72 96 22 26 138 261 138 279 0 10 4 22 9
27 9 10 53 150 67 215 4 19 9 40 10 45 5 19 16 88 18 114 3 26 4 26 87 27 66
1 93 -3 135 -22 130 -57 355 -76 498 -42 80 20 165 24 176 10 7 -9 75 -15 190
-16 130 -1 189 10 280 52 40 18 63 21 205 20 88 0 165 1 170 2 6 1 15 1 20 0
6 -1 92 -2 192 -2 220 0 264 11 330 80 24 24 43 51 43 58 0 8 4 14 8 14 15 0
22 141 9 189 -17 61 -89 133 -156 156 -44 14 -100 16 -401 16 -192 0 -350 3
-350 5 0 3 16 23 36 44 20 22 44 50 53 62 8 13 26 34 38 48 13 14 23 28 23 32
0 3 6 13 13 20 19 19 87 134 87 147 0 6 5 11 10 11 6 0 10 4 10 9 0 5 13 38
29 73 57 124 100 276 116 410 14 104 7 286 -15 408 -6 36 -14 81 -17 100 -7
51 -83 380 -94 408 -12 32 -6 38 43 46 63 9 168 40 168 48 0 5 8 8 19 8 10 0
30 9 44 20 14 11 28 20 32 20 13 0 89 64 125 104 19 22 43 48 53 58 9 10 17
20 17 23 0 3 12 24 26 47 36 56 82 186 85 236 3 41 -21 91 -44 93 -6 1 -23 3
-37 4 -14 2 -38 -3 -54 -11 -40 -19 -161 -52 -221 -60 -73 -9 -218 -4 -230 8
-3 3 25 19 62 37 38 18 84 42 104 54 39 24 171 117 179 127 3 3 21 18 40 34
19 15 53 45 76 66 56 52 101 73 159 74 55 0 143 -35 183 -74 74 -71 171 -53
172 32 0 25 -45 181 -58 203 -4 6 -7 12 -7 15 -2 31 -133 293 -186 373 -77
114 -175 223 -269 298 -124 99 -329 192 -472 215 -16 2 -43 7 -60 10 -35 7
-316 13 -321 7z"/>
</g>
</svg>
